<svg xmlns="http://www.w3.org/2000/svg" viewBox="0 0 94.61 24.56"><defs><style>.cls-1{fill:#fff;}.cls-2{fill:#ee3d32;}</style></defs><g id="Layer_2" data-name="Layer 2"><g id="Layer_1-2" data-name="Layer 1"><path class="cls-1" d="M6.31,24.56a4,4,0,0,1-4-3.11L0,8.21a4.1,4.1,0,0,1,3.5-4.54,4.71,4.71,0,0,1,.74-.06,4,4,0,0,1,4,3.23l.3,1.89A4.4,4.4,0,0,1,9.75,8.4c.2,0,.4,0,.59,0a4,4,0,0,1,2,.53,3.88,3.88,0,0,1,1.87,2.48,3.78,3.78,0,0,1-.55,3l-.06.08-.59.73,1.91,1.49a4,4,0,0,1,1.52,2.93,3.77,3.77,0,0,1-1.09,2.81,4.14,4.14,0,0,1-2.95,1.21,3.82,3.82,0,0,1-2.52-.89l-.07,0A4.13,4.13,0,0,1,7,24.51,4,4,0,0,1,6.31,24.56Z"/><path class="cls-1" d="M18.92,22.67a7.67,7.67,0,0,1-7.62-6.88,7.65,7.65,0,0,1,1.45-5.88A7.79,7.79,0,0,1,18,7a5.3,5.3,0,0,1,.64,0,7.11,7.11,0,0,1,2.2.35,4.26,4.26,0,0,1,2-.74l.42,0A4,4,0,0,1,27.4,10.1l.67,7.74a4,4,0,0,1-3.71,4.22l-.39,0a4.22,4.22,0,0,1-1.62-.32,6.73,6.73,0,0,1-3.43.91Zm.64-7.91a0,0,0,0,1,0,0h0Z"/><path class="cls-1" d="M28.63,21.69a4,4,0,0,1-4-3.56L23.49,4.82a3.74,3.74,0,0,1,.9-2.73,4.4,4.4,0,0,1,3-1.48h.33a4,4,0,0,1,4.13,3.52L32,5.87a4.12,4.12,0,0,1,.73-.09l.45,0a7.49,7.49,0,0,1,7.63,7.54,7.59,7.59,0,0,1-7.21,8.16H33.2A6.5,6.5,0,0,1,30.88,21a4.16,4.16,0,0,1-1.93.63Zm3.82-8h0v0Z"/><path class="cls-1" d="M41.3,21.12a4,4,0,0,1-4.07-3.68L36.8,4a4.11,4.11,0,0,1,4.1-4H41a4,4,0,0,1,4.17,3.81l.21,13.29a4,4,0,0,1-4,4Z"/><path class="cls-1" d="M49.61,21.11a7.81,7.81,0,0,1-8-7.83,7.57,7.57,0,0,1,2.14-5.52,8.64,8.64,0,0,1,12,.09,7.59,7.59,0,0,1,2.06,5.58,7.82,7.82,0,0,1-8.08,7.68Z"/><path class="cls-1" d="M62.27,21.51l-.52,0a7.81,7.81,0,0,1-7.62-8.21,7.64,7.64,0,0,1,8-7.49,4.87,4.87,0,0,1,.54,0,8.19,8.19,0,0,1,5.84,2.73,7.57,7.57,0,0,1,1.79,5.67,7.86,7.86,0,0,1-8,7.3Z"/><path class="cls-1" d="M83.6,23.53a4.18,4.18,0,0,1-.61-.05,4.12,4.12,0,0,1-3-2,4.19,4.19,0,0,1-6.52-.77,4.13,4.13,0,0,1-3,1.3A2.42,2.42,0,0,1,70,22a4,4,0,0,1-3.73-4.12L66.93,10A4,4,0,0,1,71,6.47l.39,0a4.33,4.33,0,0,1,1.92.64,5.9,5.9,0,0,1,1.92-.32l.63,0A7,7,0,0,1,79.36,8.1a6.12,6.12,0,0,1,2.48-.52,6.23,6.23,0,0,1,.77,0,6.52,6.52,0,0,1,4.5,2.47,7.34,7.34,0,0,1,1.17,5.61l-.69,4.49a4,4,0,0,1-4,3.33Z"/><path class="cls-1" d="M89,19.74a3.88,3.88,0,0,1-.67-.06,3.78,3.78,0,0,1-3.24-4.13q.47-4,.9-8.12A3.73,3.73,0,0,1,87.6,4.81a4.59,4.59,0,0,1,6.33,1.07,3.7,3.7,0,0,1,.57,3.05c-.57,2.58-1.16,5.24-1.74,7.9A3.72,3.72,0,0,1,89,19.74Z"/><path class="cls-1" d="M88.35,24.35a4,4,0,0,1-.76-.07,4.35,4.35,0,0,1,.66-8.66,4,4,0,0,1,.76.07,4.53,4.53,0,0,1,3,1.83,4.26,4.26,0,0,1,.72,3.21,4.4,4.4,0,0,1-4.36,3.62Z"/><path class="cls-2" d="M13.59,18.38c-1.2-.94-2.42-1.88-3.65-2.8l1.92-2.41a1.63,1.63,0,0,0,.25-1.3,1.77,1.77,0,0,0-.84-1.11,2,2,0,0,0-2.53.57L7.16,13.4q-.48-3.12-1-6.22A1.91,1.91,0,0,0,3.89,5.8a1.92,1.92,0,0,0-1.72,2Q3.31,14.43,4.47,21a1.87,1.87,0,0,0,2.18,1.37,1.84,1.84,0,0,0,1.62-2L8,18.51c1.11.85,2.21,1.71,3.29,2.57a2,2,0,0,0,2.54-.17,1.57,1.57,0,0,0,.48-1.21A1.8,1.8,0,0,0,13.59,18.38Z"/><path class="cls-2" d="M23.11,8.74A2,2,0,0,0,21.39,10a4.52,4.52,0,0,0-3.12-.85,5.37,5.37,0,0,0-4.83,6.33,5.48,5.48,0,0,0,6.11,5A4.3,4.3,0,0,0,22.3,19a2,2,0,0,0,1.86.9A1.84,1.84,0,0,0,25.92,18q-.34-3.87-.67-7.74A1.87,1.87,0,0,0,23.11,8.74Zm-3.84,3.8A2.23,2.23,0,0,1,19.76,17a2.1,2.1,0,0,1-2.35-2A2.08,2.08,0,0,1,19.27,12.54Z"/><path class="cls-2" d="M32.79,7.93A4.64,4.64,0,0,0,30,9.14c-.11-1.6-.22-3.21-.32-4.81a1.93,1.93,0,0,0-2.15-1.57,1.9,1.9,0,0,0-1.9,1.88Q26.2,11.3,26.74,18a1.84,1.84,0,0,0,2.05,1.57,2,2,0,0,0,1.68-1.2,4.25,4.25,0,0,0,3,1,5.47,5.47,0,0,0,5.19-5.94A5.38,5.38,0,0,0,32.79,7.93Zm1.82,5.62a2.09,2.09,0,0,1-2,2.35,2.29,2.29,0,0,1-2.33-2.1,2.26,2.26,0,0,1,2.07-2.37A2.09,2.09,0,0,1,34.61,13.55Z"/><path class="cls-2" d="M41,2.16a1.93,1.93,0,0,0-2,1.78q.21,6.68.43,13.36a1.87,1.87,0,0,0,2,1.66,1.84,1.84,0,0,0,1.88-1.76L43,3.84A1.89,1.89,0,0,0,41,2.16Z"/><path class="cls-2" d="M49.73,7.56c-3.51,0-6,2.4-6,5.68a5.93,5.93,0,0,0,11.84.11C55.73,10.07,53.26,7.59,49.73,7.56Zm-.07,7.7a2,2,0,0,1-2-2,2,2,0,0,1,4,0A2,2,0,0,1,49.66,15.26Z"/><path class="cls-2" d="M62.52,8a5.56,5.56,0,0,0-6.23,5.39A5.93,5.93,0,0,0,68.12,14C68.4,10.76,66.05,8.16,62.52,8Zm-.44,7.69a2,2,0,0,1-1.88-2.14,2,2,0,0,1,4,.23A2,2,0,0,1,62.08,15.65Z"/><path class="cls-2" d="M82.32,9.77A3.88,3.88,0,0,0,79,11a3.92,3.92,0,0,0-3.36-2,3.53,3.53,0,0,0-2.71.83,2,2,0,0,0-1.72-1.18,1.9,1.9,0,0,0-2.13,1.55l-.63,7.75a1.86,1.86,0,0,0,1.76,1.87,1.84,1.84,0,0,0,2.07-1.54c.13-1.38.27-2.77.4-4.16s1-1.64,1.64-1.57a1.43,1.43,0,0,1,1.2,1.76l-.47,4.27a1.88,1.88,0,0,0,1.72,1.92A1.85,1.85,0,0,0,78.89,19c.17-1.38.34-2.77.52-4.15.1-.78.46-1.69,1.63-1.53a1.46,1.46,0,0,1,1.17,1.85c-.19,1.4-.38,2.8-.58,4.2a1.88,1.88,0,0,0,1.67,2,1.84,1.84,0,0,0,2.15-1.42l.69-4.53C86.61,12.24,85.22,10.16,82.32,9.77Z"/><path class="cls-2" d="M92.16,7.12a2.42,2.42,0,0,0-3.3-.55,1.52,1.52,0,0,0-.68,1.1l-.9,8.14a1.64,1.64,0,0,0,1.44,1.74,1.63,1.63,0,0,0,1.93-1.18q.87-4,1.76-8A1.52,1.52,0,0,0,92.16,7.12Z"/><path class="cls-2" d="M88.66,17.82a2.2,2.2,0,1,0-.72,4.33,2.24,2.24,0,0,0,2.64-1.79A2.21,2.21,0,0,0,88.66,17.82Z"/></g></g></svg>